<svg aria-hidden="true" style="position: absolute; width: 0; height: 0; overflow: hidden;" version="1.1" xmlns="http://www.w3.org/2000/svg" xmlns:xlink="http://www.w3.org/1999/xlink">
<defs>
<symbol id="icon-arrow-bold-down" viewBox="0 0 20 20">
<path d="M2.5 10h3.5v-7h8v7h3.5l-7.5 7.5-7.5-7.5z"></path>
</symbol>
<symbol id="icon-arrow-down" viewBox="0 0 20 20">
<path d="M10 17.5l-6.5-6.5h3.5v-8h6v8h3.5l-6.5 6.5z"></path>
</symbol>
<symbol id="icon-arrow-left" viewBox="0 0 20 20">
<path d="M2.5 10l6.5-6.5v3.5h8v6h-8v3.5l-6.5-6.5z"></path>
</symbol>
<symbol id="icon-arrow-long-down" viewBox="0 0 20 20">
<path d="M10 19.25l-5.5-5.25h3.5v-13h4v13h3.5l-5.5 5.25z"></path>
</symbol>
<symbol id="icon-arrow-long-left" viewBox="0 0 20 20">
<path d="M0.75 10l5.25-5.5v3.5h13v4h-13v3.5l-5.25-5.5z"></path>
</symbol>
<symbol id="icon-arrow-long-right" viewBox="0 0 20 20">
<path d="M14 15.5v-3.5h-13v-4h13v-3.5l5.25 5.5-5.25 5.5z"></path>
</symbol>
<symbol id="icon-arrow-long-up" viewBox="0 0 20 20">
<path d="M10 0.75l5.5 5.25h-3.5v13h-4v-13h-3.5l5.5-5.25z"></path>
</symbol>
<symbol id="icon-arrow-right" viewBox="0 0 20 20">
<path d="M11 16.5v-3.5h-8v-6h8v-3.5l6.5 6.5-6.5 6.5z"></path>
</symbol>
<symbol id="icon-arrow-up" viewBox="0 0 20 20">
<path d="M10 2.5l6.5 6.5h-3.5v8h-6v-8h-3.5l6.5-6.5z"></path>
</symbol>
<symbol id="icon-chevron-down" viewBox="0 0 20 20">
<path d="M4.516 7.548c0.436-0.446 1.043-0.481 1.576 0l3.908 3.747 3.908-3.747c0.533-0.481 1.141-0.446 1.574 0 0.436 0.445 0.408 1.197 0 1.615-0.406 0.418-4.695 4.502-4.695 4.502-0.217 0.223-0.502 0.335-0.787 0.335s-0.57-0.112-0.789-0.335c0 0-4.287-4.084-4.695-4.502s-0.436-1.17 0-1.615z"></path>
</symbol>
<symbol id="icon-chevron-thin-down" viewBox="0 0 20 20">
<path d="M17.418 6.109c0.272-0.268 0.709-0.268 0.979 0s0.271 0.701 0 0.969l-7.908 7.83c-0.27 0.268-0.707 0.268-0.979 0l-7.908-7.83c-0.27-0.268-0.27-0.701 0-0.969s0.709-0.268 0.979 0l7.419 7.141 7.418-7.141z"></path>
</symbol>
<symbol id="icon-facebook" viewBox="0 0 20 20">
<path d="M17 1h-14c-1.1 0-2 0.9-2 2v14c0 1.101 0.9 2 2 2h7v-7h-2v-2.475h2v-2.050c0-2.164 1.212-3.684 3.766-3.684l1.803 0.002v2.605h-1.197c-0.994 0-1.372 0.746-1.372 1.438v1.69h2.568l-0.568 2.474h-2v7h4c1.1 0 2-0.899 2-2v-14c0-1.1-0.9-2-2-2z"></path>
</symbol>
<symbol id="icon-github" viewBox="0 0 20 20">
<path d="M13.18 11.309c-0.718 0-1.3 0.807-1.3 1.799 0 0.994 0.582 1.801 1.3 1.801s1.3-0.807 1.3-1.801c-0.001-0.992-0.582-1.799-1.3-1.799zM17.706 6.626c0.149-0.365 0.155-2.439-0.635-4.426 0 0-1.811 0.199-4.551 2.080-0.575-0.16-1.548-0.238-2.519-0.238-0.973 0-1.945 0.078-2.52 0.238-2.741-1.881-4.552-2.080-4.552-2.080-0.789 1.987-0.781 4.061-0.634 4.426-0.928 1.008-1.495 2.219-1.495 3.871 0 7.186 5.963 7.301 7.467 7.301 0.342 0 1.018 0.002 1.734 0.002s1.392-0.002 1.732-0.002c1.506 0 7.467-0.115 7.467-7.301 0-1.652-0.566-2.863-1.494-3.871zM10.028 16.915h-0.056c-3.771 0-6.709-0.449-6.709-4.115 0-0.879 0.31-1.693 1.047-2.369 1.227-1.127 3.305-0.531 5.662-0.531 0.010 0 0.020 0 0.029 0s0.018 0 0.027 0c2.357 0 4.436-0.596 5.664 0.531 0.735 0.676 1.045 1.49 1.045 2.369 0 3.666-2.937 4.115-6.709 4.115zM6.821 11.309c-0.718 0-1.3 0.807-1.3 1.799 0 0.994 0.582 1.801 1.3 1.801s1.301-0.807 1.301-1.801c0-0.992-0.582-1.799-1.301-1.799z"></path>
</symbol>
<symbol id="icon-instagram" viewBox="0 0 20 20">
<path d="M17 1h-14c-1.1 0-2 0.9-2 2v14c0 1.101 0.9 2 2 2h14c1.1 0 2-0.899 2-2v-14c0-1.1-0.9-2-2-2zM9.984 15.523c3.059 0 5.538-2.481 5.538-5.539 0-0.338-0.043-0.664-0.103-0.984h1.581v7.216c0 0.382-0.31 0.69-0.693 0.69h-12.614c-0.383 0-0.693-0.308-0.693-0.69v-7.216h1.549c-0.061 0.32-0.104 0.646-0.104 0.984 0 3.059 2.481 5.539 5.539 5.539zM6.523 9.984c0-1.912 1.55-3.461 3.462-3.461s3.462 1.549 3.462 3.461-1.551 3.462-3.462 3.462c-1.913 0-3.462-1.55-3.462-3.462zM16.307 6h-1.615c-0.382 0-0.692-0.312-0.692-0.692v-1.617c0-0.382 0.31-0.691 0.691-0.691h1.615c0.384 0 0.694 0.309 0.694 0.691v1.616c0 0.381-0.31 0.693-0.693 0.693z"></path>
</symbol>
<symbol id="icon-plus" viewBox="0 0 32 32">
<path d="M31 12h-11v-11c0-0.552-0.448-1-1-1h-6c-0.552 0-1 0.448-1 1v11h-11c-0.552 0-1 0.448-1 1v6c0 0.552 0.448 1 1 1h11v11c0 0.552 0.448 1 1 1h6c0.552 0 1-0.448 1-1v-11h11c0.552 0 1-0.448 1-1v-6c0-0.552-0.448-1-1-1z"></path>
</symbol>
</defs>
</svg>
